<svg width="575" height="491" viewBox="0 0 575 491" fill="none" xmlns="http://www.w3.org/2000/svg">
<g opacity="0.3">
<g opacity="0.1">
<path fill-rule="evenodd" clip-rule="evenodd" d="M21.2632 155.097C19.0344 156.728 18.5491 159.856 20.1794 162.085L24.9024 168.542C26.5326 170.771 29.6611 171.256 31.8899 169.626L38.3469 164.903C40.5758 163.273 41.061 160.144 39.4307 157.915L34.7078 151.458C33.0775 149.229 29.9491 148.744 27.7202 150.374L21.2632 155.097ZM21.7937 160.904C20.8155 159.567 21.1066 157.69 22.4439 156.712L28.901 151.989C30.2383 151.011 32.1153 151.302 33.0935 152.639L37.8165 159.096C38.7946 160.433 38.5035 162.31 37.1662 163.289L30.7091 168.012C29.3718 168.99 27.4948 168.699 26.5166 167.361L21.7937 160.904ZM31.3836 160.961L32.0339 156.768L30.0575 156.461L29.5605 159.666L27.7537 159.386L27.4472 161.362L30.2422 161.795L31.2304 161.949L31.3836 160.961Z" fill="#4983DD"/>
</g>
<g opacity="0.4">
<path fill-rule="evenodd" clip-rule="evenodd" d="M465.069 155.097C462.84 156.728 462.355 159.856 463.985 162.085L468.708 168.542C470.338 170.771 473.467 171.256 475.696 169.626L482.153 164.903C484.381 163.272 484.867 160.144 483.236 157.915L478.513 151.458C476.883 149.229 473.755 148.744 471.526 150.374L465.069 155.097ZM465.599 160.904C464.621 159.567 464.912 157.69 466.25 156.712L472.707 151.989C474.044 151.01 475.921 151.302 476.899 152.639L481.622 159.096C482.6 160.433 482.309 162.31 480.972 163.288L474.515 168.011C473.178 168.99 471.3 168.698 470.322 167.361L465.599 160.904ZM475.189 160.96L475.84 156.768L473.863 156.461L473.366 159.666L471.559 159.385L471.253 161.362L474.048 161.795L475.036 161.949L475.189 160.96Z" fill="#4983DD"/>
</g>
<g opacity="0.2" clip-path="url(#clip0_1_332)">
<path fill-rule="evenodd" clip-rule="evenodd" d="M460.224 11.3375C458.777 12.3962 458.462 14.4279 459.521 15.8754L462.588 20.0689C463.647 21.5164 465.678 21.8316 467.126 20.7728L471.319 17.7055C472.767 16.6467 473.082 14.615 472.023 13.1675L468.956 8.97401C467.897 7.52651 465.865 7.21138 464.418 8.27015L460.224 11.3375ZM460.569 15.1086C459.934 14.2401 460.123 13.0211 460.991 12.3858L465.185 9.31852C466.053 8.68326 467.272 8.87234 467.908 9.74084L470.975 13.9343C471.61 14.8028 471.421 16.0219 470.553 16.6571L466.359 19.7244C465.491 20.3597 464.272 20.1706 463.636 19.3021L460.569 15.1086ZM466.797 15.1452L467.219 12.4224L465.936 12.2233L465.613 14.3043L464.439 14.1223L464.24 15.4059L466.056 15.6874L466.697 15.787L466.797 15.1452Z" fill="#4983DD"/>
</g>
<g opacity="0.1">
<path fill-rule="evenodd" clip-rule="evenodd" d="M475.801 67.4735C473.821 63.9176 469.332 62.6406 465.776 64.6213L455.474 70.3595C451.918 72.3402 450.641 76.8286 452.622 80.3845L458.36 90.6863C460.341 94.2423 464.829 95.5193 468.385 93.5385L478.687 87.8003C482.243 85.8196 483.52 81.3313 481.539 77.7753L475.801 67.4735ZM467.211 67.1967C469.344 66.0083 472.037 66.7745 473.226 68.9081L478.964 79.2099C480.152 81.3435 479.386 84.0365 477.253 85.2249L466.951 90.9631C464.817 92.1515 462.124 91.3853 460.936 89.2518L455.198 78.95C454.009 76.8164 454.775 74.1234 456.909 72.935L467.211 67.1967ZM465.389 81.2149L471.404 82.9263L472.211 80.0908L467.614 78.7828L468.351 76.1906L465.516 75.3838L464.375 79.3938L463.972 80.8116L465.389 81.2149Z" fill="#4983DD"/>
</g>
<g opacity="0.1">
<path fill-rule="evenodd" clip-rule="evenodd" d="M35.9385 227.855C31.4188 226.055 26.2955 228.26 24.4952 232.779L19.2798 245.873C17.4796 250.393 19.6841 255.516 24.2038 257.316L37.2976 262.532C41.8172 264.332 46.9406 262.127 48.7408 257.608L53.9562 244.514C55.7565 239.994 53.5519 234.871 49.0322 233.071L35.9385 227.855ZM27.7687 234.083C28.8488 231.371 31.9228 230.049 34.6346 231.129L47.7284 236.344C50.4402 237.424 51.7629 240.498 50.6828 243.21L45.4674 256.304C44.3872 259.016 41.3132 260.338 38.6014 259.258L25.5077 254.043C22.7959 252.963 21.4731 249.889 22.5533 247.177L27.7687 234.083ZM36.6636 248.449L43.5295 245.494L42.1368 242.258L36.8892 244.516L35.6159 241.557L32.3793 242.949L34.3489 247.527L35.0452 249.145L36.6636 248.449Z" fill="#4983DD"/>
</g>
<g opacity="0.2">
<path fill-rule="evenodd" clip-rule="evenodd" d="M472.539 201.945C465.027 204.455 460.973 212.58 463.483 220.092L470.756 241.855C473.267 249.367 481.391 253.422 488.904 250.911L510.666 243.638C518.178 241.128 522.233 233.003 519.723 225.491L512.45 203.728C509.939 196.216 501.814 192.161 494.302 194.672L472.539 201.945ZM468.924 218.274C467.418 213.767 469.85 208.892 474.358 207.385L496.12 200.112C500.628 198.606 505.503 201.039 507.009 205.546L514.282 227.309C515.788 231.816 513.355 236.691 508.848 238.198L487.085 245.471C482.578 246.977 477.703 244.544 476.197 240.037L468.924 218.274ZM495.077 226.793L500.51 215.904L495.378 213.343L491.225 221.665L486.532 219.323L483.971 224.456L491.23 228.078L493.796 229.359L495.077 226.793Z" fill="#4983DD"/>
</g>
<g opacity="0.2">
<path fill-rule="evenodd" clip-rule="evenodd" d="M44.3505 362.652C44.562 365.07 46.6932 366.858 49.1108 366.647L56.1148 366.034C58.5323 365.822 60.3208 363.691 60.1093 361.274L59.4966 354.27C59.2852 351.852 57.1539 350.064 54.7363 350.275L47.7324 350.888C45.3148 351.099 43.5264 353.23 43.7378 355.648L44.3505 362.652ZM48.9577 364.896C47.5071 365.022 46.2284 363.949 46.1015 362.499L45.4888 355.495C45.3619 354.044 46.435 352.766 47.8856 352.639L54.8895 352.026C56.34 351.899 57.6188 352.972 57.7457 354.423L58.3583 361.427C58.4852 362.877 57.4121 364.156 55.9616 364.283L48.9577 364.896ZM53.3638 357.711L50.5076 355.314L49.3777 356.661L51.5607 358.492L50.5278 359.723L51.8742 360.853L53.4721 358.949L54.037 358.276L53.3638 357.711Z" fill="#4983DD"/>
</g>
<g opacity="0.2">
<path fill-rule="evenodd" clip-rule="evenodd" d="M474.132 397.614C476.288 400.496 480.373 401.085 483.255 398.929L491.605 392.681C494.488 390.525 495.076 386.44 492.92 383.558L486.673 375.208C484.516 372.325 480.432 371.737 477.549 373.893L469.199 380.14C466.317 382.297 465.728 386.381 467.885 389.264L474.132 397.614ZM481.693 396.841C479.964 398.135 477.513 397.782 476.219 396.052L469.972 387.702C468.678 385.973 469.031 383.522 470.761 382.228L479.111 375.981C480.841 374.687 483.291 375.04 484.585 376.77L490.832 385.12C492.126 386.849 491.773 389.3 490.044 390.594L481.693 396.841ZM481.632 384.34L476.158 383.551L475.786 386.132L479.97 386.734L479.63 389.094L482.21 389.465L482.736 385.816L482.922 384.526L481.632 384.34Z" fill="#4983DD"/>
</g>
<g opacity="0.5">
<path fill-rule="evenodd" clip-rule="evenodd" d="M47.648 296.708C45.204 298.618 44.7714 302.148 46.6818 304.592L52.2164 311.673C54.1268 314.117 57.6568 314.55 60.1009 312.639L67.1815 307.105C69.6255 305.194 70.0581 301.664 68.1477 299.22L62.6131 292.14C60.7027 289.696 57.1727 289.263 54.7286 291.173L47.648 296.708ZM48.4519 303.209C47.3057 301.742 47.5652 299.624 49.0317 298.478L56.1123 292.944C57.5787 291.797 59.6967 292.057 60.843 293.523L66.3776 300.604C67.5238 302.07 67.2643 304.188 65.7978 305.335L58.7172 310.869C57.2508 312.015 55.1328 311.756 53.9865 310.289L48.4519 303.209ZM59.2223 302.928L59.802 298.197L57.5719 297.924L57.1288 301.54L55.0901 301.29L54.8168 303.52L57.9706 303.906L59.0856 304.043L59.2223 302.928Z" fill="#4983DD"/>
</g>
<g opacity="0.2">
<path fill-rule="evenodd" clip-rule="evenodd" d="M99.9366 422.922C94.6278 420.283 88.1848 422.447 85.5456 427.756L77.8998 443.136C75.2606 448.445 77.4248 454.888 82.7335 457.527L98.1134 465.173C103.422 467.812 109.865 465.648 112.504 460.339L120.15 444.959C122.789 439.651 120.625 433.207 115.316 430.568L99.9366 422.922ZM89.3905 429.668C90.974 426.482 94.8399 425.184 98.0252 426.767L113.405 434.413C116.59 435.997 117.889 439.863 116.305 443.048L108.659 458.428C107.076 461.613 103.21 462.911 100.025 461.328L84.645 453.682C81.4597 452.099 80.1612 448.233 81.7447 445.048L89.3905 429.668ZM98.7537 448.005L107.388 445.105L106.021 441.035L99.4217 443.251L98.1718 439.53L94.1014 440.897L96.0349 446.654L96.7185 448.689L98.7537 448.005Z" fill="#4983DD"/>
</g>
<g opacity="0.5">
<path fill-rule="evenodd" clip-rule="evenodd" d="M175.047 431.349C172.584 432.744 171.718 435.872 173.113 438.335L177.155 445.471C178.55 447.935 181.678 448.801 184.141 447.406L191.277 443.364C193.741 441.969 194.607 438.841 193.212 436.378L189.17 429.241C187.775 426.778 184.647 425.912 182.184 427.307L175.047 431.349ZM174.897 437.324C174.06 435.846 174.58 433.97 176.058 433.133L183.194 429.091C184.672 428.254 186.549 428.773 187.386 430.252L191.428 437.388C192.265 438.866 191.745 440.743 190.267 441.58L183.131 445.621C181.653 446.458 179.776 445.939 178.939 444.461L174.897 437.324ZM184.656 438.522L185.816 434.33L183.84 433.783L182.953 436.987L181.147 436.487L180.6 438.463L183.394 439.236L184.382 439.51L184.656 438.522Z" fill="#4983DD"/>
</g>
<g opacity="0.4">
<path fill-rule="evenodd" clip-rule="evenodd" d="M496.407 308.612C496.236 312.846 499.529 316.417 503.763 316.589L516.029 317.085C520.263 317.257 523.834 313.964 524.005 309.73L524.502 297.464C524.673 293.23 521.38 289.658 517.146 289.487L504.88 288.99C500.646 288.819 497.075 292.112 496.904 296.346L496.407 308.612ZM503.887 313.522C501.347 313.42 499.371 311.277 499.474 308.736L499.97 296.47C500.073 293.93 502.216 291.954 504.756 292.057L517.022 292.554C519.562 292.656 521.538 294.799 521.436 297.339L520.939 309.605C520.836 312.146 518.693 314.122 516.153 314.019L503.887 313.522ZM513.115 302.06L508.702 297.274L506.445 299.354L509.819 303.012L507.756 304.914L509.837 307.17L513.027 304.228L514.155 303.188L513.115 302.06Z" fill="#4983DD"/>
</g>
<g opacity="0.4">
<path fill-rule="evenodd" clip-rule="evenodd" d="M79.7877 187.825C77.1036 189.923 76.6285 193.8 78.7266 196.484L84.8048 204.26C86.9028 206.944 90.7795 207.419 93.4636 205.321L101.24 199.243C103.924 197.145 104.399 193.268 102.301 190.584L96.2226 182.808C94.1245 180.124 90.2478 179.649 87.5637 181.747L79.7877 187.825ZM80.6706 194.965C79.4118 193.354 79.6968 191.028 81.3073 189.769L89.0833 183.691C90.6937 182.432 93.0197 182.717 94.2786 184.328L100.357 192.104C101.616 193.714 101.331 196.04 99.7201 197.299L91.9441 203.377C90.3336 204.636 88.0076 204.351 86.7488 202.741L80.6706 194.965ZM92.4987 194.656L93.1354 189.461L90.6863 189.161L90.1997 193.132L87.9607 192.857L87.6605 195.306L91.1241 195.731L92.3486 195.881L92.4987 194.656Z" fill="#4983DD"/>
</g>
<g opacity="0.1">
<path fill-rule="evenodd" clip-rule="evenodd" d="M535.788 164.999C533.104 167.097 532.629 170.974 534.727 173.658L540.805 181.434C542.903 184.118 546.78 184.593 549.464 182.495L557.24 176.417C559.924 174.319 560.399 170.442 558.301 167.758L552.223 159.982C550.125 157.298 546.248 156.823 543.564 158.921L535.788 164.999ZM536.671 172.139C535.412 170.528 535.697 168.202 537.307 166.943L545.083 160.865C546.694 159.606 549.02 159.891 550.279 161.502L556.357 169.278C557.616 170.888 557.331 173.214 555.72 174.473L547.944 180.551C546.334 181.81 544.008 181.525 542.749 179.915L536.671 172.139ZM548.499 171.83L549.135 166.635L546.686 166.335L546.2 170.306L543.961 170.031L543.661 172.48L547.124 172.905L548.349 173.055L548.499 171.83Z" fill="#4983DD"/>
</g>
</g>
<defs>
<clipPath id="clip0_1_332">
<rect width="20.7822" height="20.7822" fill="white" transform="translate(451.25 12.2692) rotate(-36.1834)"/>
</clipPath>
</defs>
</svg>
