<svg width="32" height="32" viewBox="0 0 32 32" fill="none" xmlns="http://www.w3.org/2000/svg">
<path fill-rule="evenodd" clip-rule="evenodd" d="M11 10C11 8.34315 12.3431 7 14 7H18C19.6569 7 21 8.34315 21 10V11H19V10C19 9.44772 18.5523 9 18 9H14C13.4477 9 13 9.44772 13 10V13H22C23.6569 13 25 14.3431 25 16V22C25 23.6569 23.6569 25 22 25H10C8.34315 25 7 23.6569 7 22V16C7 14.3431 8.34315 13 10 13H11V10ZM10 15C9.44772 15 9 15.4477 9 16V22C9 22.5523 9.44772 23 10 23H22C22.5523 23 23 22.5523 23 22V16C23 15.4477 22.5523 15 22 15H10ZM16 18C15.4477 18 15 18.4477 15 19C15 19.5523 15.4477 20 16 20C16.5523 20 17 19.5523 17 19C17 18.4477 16.5523 18 16 18Z" fill="#4983DD"/>
</svg>
