<svg width="160" height="168" viewBox="0 0 160 168" fill="none" xmlns="http://www.w3.org/2000/svg">
<g opacity="0.1">
<path d="M40 76C40 75.4477 40.4477 75 41 75H53.7868C57.765 75 61.5804 76.5804 64.3934 79.3934L69.3934 84.3934C75.2513 90.2513 84.7487 90.2513 90.6066 84.3934L95.6066 79.3934C98.4197 76.5803 102.235 75 106.213 75H119C119.552 75 120 75.4477 120 76V112C120 113.657 118.657 115 117 115H43C41.3431 115 40 113.657 40 112V76Z" stroke="#4983DD" stroke-width="10"/>
<path d="M45 70L59.4 50.8C59.7777 50.2964 60.3705 50 61 50H99C99.6295 50 100.222 50.2964 100.6 50.8L115 70" stroke="#4983DD" stroke-width="10" stroke-linecap="round"/>
</g>
<path opacity="0.3" d="M44.6914 157V148.434H46.0918V155.799H49.7188V157H44.6914ZM52.4258 157H51.0488V150.52H52.4258V157ZM50.9668 148.803C50.9668 148.557 51.0332 148.367 51.166 148.234C51.3027 148.102 51.4961 148.035 51.7461 148.035C51.9883 148.035 52.1758 148.102 52.3086 148.234C52.4453 148.367 52.5137 148.557 52.5137 148.803C52.5137 149.037 52.4453 149.223 52.3086 149.359C52.1758 149.492 51.9883 149.559 51.7461 149.559C51.4961 149.559 51.3027 149.492 51.166 149.359C51.0332 149.223 50.9668 149.037 50.9668 148.803ZM58.7539 155.154C58.7539 155.787 58.5234 156.273 58.0625 156.613C57.6016 156.949 56.9414 157.117 56.082 157.117C55.2188 157.117 54.5254 156.986 54.002 156.725V155.535C54.7637 155.887 55.4727 156.062 56.1289 156.062C56.9766 156.062 57.4004 155.807 57.4004 155.295C57.4004 155.131 57.3535 154.994 57.2598 154.885C57.166 154.775 57.0117 154.662 56.7969 154.545C56.582 154.428 56.2832 154.295 55.9004 154.146C55.1543 153.857 54.6484 153.568 54.3828 153.279C54.1211 152.99 53.9902 152.615 53.9902 152.154C53.9902 151.6 54.2129 151.17 54.6582 150.865C55.1074 150.557 55.7168 150.402 56.4863 150.402C57.248 150.402 57.9688 150.557 58.6484 150.865L58.2031 151.902C57.5039 151.613 56.916 151.469 56.4395 151.469C55.7129 151.469 55.3496 151.676 55.3496 152.09C55.3496 152.293 55.4434 152.465 55.6309 152.605C55.8223 152.746 56.2363 152.939 56.873 153.186C57.4082 153.393 57.7969 153.582 58.0391 153.754C58.2812 153.926 58.4609 154.125 58.5781 154.352C58.6953 154.574 58.7539 154.842 58.7539 155.154ZM62.6621 156.004C62.998 156.004 63.334 155.951 63.6699 155.846V156.883C63.5176 156.949 63.3203 157.004 63.0781 157.047C62.8398 157.094 62.5918 157.117 62.334 157.117C61.0293 157.117 60.377 156.43 60.377 155.055V151.562H59.4922V150.953L60.4414 150.449L60.9102 149.078H61.7598V150.52H63.6055V151.562H61.7598V155.031C61.7598 155.363 61.8418 155.609 62.0059 155.77C62.1738 155.926 62.3926 156.004 62.6621 156.004ZM69.4648 157H68.0879V150.52H69.4648V157ZM68.0059 148.803C68.0059 148.557 68.0723 148.367 68.2051 148.234C68.3418 148.102 68.5352 148.035 68.7852 148.035C69.0273 148.035 69.2148 148.102 69.3477 148.234C69.4844 148.367 69.5527 148.557 69.5527 148.803C69.5527 149.037 69.4844 149.223 69.3477 149.359C69.2148 149.492 69.0273 149.559 68.7852 149.559C68.5352 149.559 68.3418 149.492 68.2051 149.359C68.0723 149.223 68.0059 149.037 68.0059 148.803ZM75.793 155.154C75.793 155.787 75.5625 156.273 75.1016 156.613C74.6406 156.949 73.9805 157.117 73.1211 157.117C72.2578 157.117 71.5645 156.986 71.041 156.725V155.535C71.8027 155.887 72.5117 156.062 73.168 156.062C74.0156 156.062 74.4395 155.807 74.4395 155.295C74.4395 155.131 74.3926 154.994 74.2988 154.885C74.2051 154.775 74.0508 154.662 73.8359 154.545C73.6211 154.428 73.3223 154.295 72.9395 154.146C72.1934 153.857 71.6875 153.568 71.4219 153.279C71.1602 152.99 71.0293 152.615 71.0293 152.154C71.0293 151.6 71.252 151.17 71.6973 150.865C72.1465 150.557 72.7559 150.402 73.5254 150.402C74.2871 150.402 75.0078 150.557 75.6875 150.865L75.2422 151.902C74.543 151.613 73.9551 151.469 73.4785 151.469C72.752 151.469 72.3887 151.676 72.3887 152.09C72.3887 152.293 72.4824 152.465 72.6699 152.605C72.8613 152.746 73.2754 152.939 73.9121 153.186C74.4473 153.393 74.8359 153.582 75.0781 153.754C75.3203 153.926 75.5 154.125 75.6172 154.352C75.7344 154.574 75.793 154.842 75.793 155.154ZM83.2344 157.117C82.2266 157.117 81.4375 156.824 80.8672 156.238C80.3008 155.648 80.0176 154.838 80.0176 153.807C80.0176 152.748 80.2812 151.916 80.8086 151.311C81.3359 150.705 82.0605 150.402 82.9824 150.402C83.8379 150.402 84.5137 150.662 85.0098 151.182C85.5059 151.701 85.7539 152.416 85.7539 153.326V154.07H81.4355C81.4551 154.699 81.625 155.184 81.9453 155.523C82.2656 155.859 82.7168 156.027 83.2988 156.027C83.6816 156.027 84.0371 155.992 84.3652 155.922C84.6973 155.848 85.0527 155.727 85.4316 155.559V156.678C85.0957 156.838 84.7559 156.951 84.4121 157.018C84.0684 157.084 83.6758 157.117 83.2344 157.117ZM82.9824 151.445C82.5449 151.445 82.1934 151.584 81.9277 151.861C81.666 152.139 81.5098 152.543 81.459 153.074H84.4004C84.3926 152.539 84.2637 152.135 84.0137 151.861C83.7637 151.584 83.4199 151.445 82.9824 151.445ZM92.7793 157H91.3965V153.004C91.3965 152.508 91.3027 152.139 91.1152 151.896C90.9277 151.65 90.6348 151.527 90.2363 151.527C89.7051 151.527 89.3145 151.701 89.0645 152.049C88.8184 152.393 88.6953 152.967 88.6953 153.771V157H87.3184V150.52H88.3965L88.5898 151.369H88.6602C88.8398 151.061 89.0996 150.822 89.4395 150.654C89.7832 150.486 90.1602 150.402 90.5703 150.402C91.5664 150.402 92.2266 150.742 92.5508 151.422H92.6445C92.8359 151.102 93.1055 150.852 93.4531 150.672C93.8008 150.492 94.1992 150.402 94.6484 150.402C95.4219 150.402 95.9844 150.598 96.3359 150.988C96.6914 151.379 96.8691 151.975 96.8691 152.775V157H95.4922V153.004C95.4922 152.508 95.3965 152.139 95.2051 151.896C95.0176 151.65 94.7246 151.527 94.3262 151.527C93.791 151.527 93.3984 151.695 93.1484 152.031C92.9023 152.363 92.7793 152.875 92.7793 153.566V157ZM102.078 157.117C101.258 157.117 100.621 156.822 100.168 156.232H100.086C100.141 156.779 100.168 157.111 100.168 157.229V159.883H98.791V150.52H99.9043C99.9355 150.641 100 150.93 100.098 151.387H100.168C100.598 150.73 101.242 150.402 102.102 150.402C102.91 150.402 103.539 150.695 103.988 151.281C104.441 151.867 104.668 152.689 104.668 153.748C104.668 154.807 104.438 155.633 103.977 156.227C103.52 156.82 102.887 157.117 102.078 157.117ZM101.744 151.527C101.197 151.527 100.797 151.688 100.543 152.008C100.293 152.328 100.168 152.84 100.168 153.543V153.748C100.168 154.537 100.293 155.109 100.543 155.465C100.793 155.816 101.201 155.992 101.768 155.992C102.244 155.992 102.611 155.797 102.869 155.406C103.127 155.016 103.256 154.459 103.256 153.736C103.256 153.01 103.127 152.461 102.869 152.09C102.615 151.715 102.24 151.527 101.744 151.527ZM108.682 156.004C109.018 156.004 109.354 155.951 109.689 155.846V156.883C109.537 156.949 109.34 157.004 109.098 157.047C108.859 157.094 108.611 157.117 108.354 157.117C107.049 157.117 106.396 156.43 106.396 155.055V151.562H105.512V150.953L106.461 150.449L106.93 149.078H107.779V150.52H109.625V151.562H107.779V155.031C107.779 155.363 107.861 155.609 108.025 155.77C108.193 155.926 108.412 156.004 108.682 156.004ZM110.006 150.52H111.506L112.824 154.193C113.023 154.717 113.156 155.209 113.223 155.67H113.27C113.305 155.455 113.369 155.195 113.463 154.891C113.557 154.582 114.053 153.125 114.951 150.52H116.439L113.668 157.861C113.164 159.209 112.324 159.883 111.148 159.883C110.844 159.883 110.547 159.85 110.258 159.783V158.693C110.465 158.74 110.701 158.764 110.967 158.764C111.631 158.764 112.098 158.379 112.367 157.609L112.607 157L110.006 150.52Z" fill="#4983DD"/>
</svg>
