<svg width="18" height="18" viewBox="0 0 18 18" fill="none" xmlns="http://www.w3.org/2000/svg">
<rect width="18" height="18" rx="4" fill="#4983DD"/>
<path fill-rule="evenodd" clip-rule="evenodd" d="M12.4773 5.77714C12.8668 5.39232 13.4934 5.39232 13.8829 5.77714L13.9019 5.79587C13.9047 5.79871 13.9076 5.80157 13.9104 5.80445C14.2986 6.19733 14.2947 6.83049 13.9019 7.21863L8.83653 12.2229C8.56146 12.4946 8.16818 12.5745 7.82365 12.4624C7.66896 12.4167 7.52271 12.3337 7.39999 12.2124L4.49739 9.34481C4.1045 8.95666 4.10066 8.32351 4.48881 7.93062L4.51634 7.90332C4.90586 7.5185 5.53244 7.5185 5.92196 7.90332L8.12363 10.078L12.4773 5.77714Z" fill="white"/>
</svg>
