<svg width="32" height="32" viewBox="0 0 32 32" fill="none" xmlns="http://www.w3.org/2000/svg">
<path fill-rule="evenodd" clip-rule="evenodd" d="M15.2929 10.1213C15.6834 9.7308 16.3166 9.7308 16.7071 10.1213L22 15.4142V22C22 22.5523 21.5523 23 21 23H11C10.4477 23 10 22.5523 10 22V15.4142L15.2929 10.1213ZM24.2929 17.7071L24 17.4142V22C24 23.6569 22.6569 25 21 25H11C9.34315 25 8 23.6569 8 22V17.4142L7.70711 17.7071C7.31658 18.0976 6.68342 18.0976 6.29289 17.7071C5.90237 17.3166 5.90237 16.6834 6.29289 16.2929L8.29289 14.2929L13.8787 8.70711C15.0503 7.53554 16.9497 7.53554 18.1213 8.70711L23.7071 14.2929L25.7071 16.2929C26.0976 16.6834 26.0976 17.3166 25.7071 17.7071C25.3166 18.0976 24.6834 18.0976 24.2929 17.7071ZM16.7071 19.7071L19.7071 16.7071L18.2929 15.2929L16 17.5858L14.7071 16.2929L13.2929 17.7071L15.2929 19.7071L16 20.4142L16.7071 19.7071Z" fill="#4983DD"/>
</svg>
