<svg width="32" height="32" viewBox="0 0 32 32" fill="none" xmlns="http://www.w3.org/2000/svg">
<path fill-rule="evenodd" clip-rule="evenodd" d="M10 9C9.44772 9 9 9.44772 9 10C9 10.5523 9.44772 11 10 11C10.5523 11 11 10.5523 11 10C11 9.44772 10.5523 9 10 9ZM14 9C13.4477 9 13 9.44772 13 10C13 10.5523 13.4477 11 14 11H22C22.5523 11 23 10.5523 23 10C23 9.44772 22.5523 9 22 9H14ZM14 15C13.4477 15 13 15.4477 13 16C13 16.5523 13.4477 17 14 17H22C22.5523 17 23 16.5523 23 16C23 15.4477 22.5523 15 22 15H14ZM13 22C13 21.4477 13.4477 21 14 21H22C22.5523 21 23 21.4477 23 22C23 22.5523 22.5523 23 22 23H14C13.4477 23 13 22.5523 13 22ZM9 16C9 15.4477 9.44772 15 10 15C10.5523 15 11 15.4477 11 16C11 16.5523 10.5523 17 10 17C9.44772 17 9 16.5523 9 16ZM10 21C9.44772 21 9 21.4477 9 22C9 22.5523 9.44772 23 10 23C10.5523 23 11 22.5523 11 22C11 21.4477 10.5523 21 10 21Z" fill="#4983DD"/>
</svg>
