<svg width="32" height="32" viewBox="0 0 32 32" fill="none" xmlns="http://www.w3.org/2000/svg">
<path fill-rule="evenodd" clip-rule="evenodd" d="M14 7C13.4477 7 13 7.44772 13 8C13 8.55228 13.4477 9 14 9H18C18.5523 9 19 8.55228 19 8C19 7.44772 18.5523 7 18 7H14ZM7 11C7 10.4477 7.44772 10 8 10H9H10H22H23H24C24.5523 10 25 10.4477 25 11C25 11.5523 24.5523 12 24 12H23V22C23 23.6569 21.6569 25 20 25H12C10.3431 25 9 23.6569 9 22V12H8C7.44772 12 7 11.5523 7 11ZM11 12H21V22C21 22.5523 20.5523 23 20 23H12C11.4477 23 11 22.5523 11 22V12ZM13 16C13 15.4477 13.4477 15 14 15C14.5523 15 15 15.4477 15 16V19C15 19.5523 14.5523 20 14 20C13.4477 20 13 19.5523 13 19V16ZM18 15C17.4477 15 17 15.4477 17 16V19C17 19.5523 17.4477 20 18 20C18.5523 20 19 19.5523 19 19V16C19 15.4477 18.5523 15 18 15Z" fill="#CD4242"/>
</svg>
